<svg fill="#c9c9cd" role="img" viewBox="0 0 24 24" xmlns="http://www.w3.org/2000/svg"><title>Bash</title><path d="M21.038 4.9l-7.577-4.498C13.009.134 12.505 0 12 0c-.505 0-1.009.134-1.462.403L2.961 4.9C2.057 5.437 1.5 6.429 1.5 7.503v8.995c0 1.073.557 2.066 1.462 2.603l7.577 4.497C10.991 23.866 11.495 24 12 24c.505 0 1.009-.134 1.461-.402l7.577-4.497c.904-.537 1.462-1.529 1.462-2.603V7.503c0-1.074-.557-2.066-1.462-2.603zM9.061 18.787c-.196.625-1.304 1.408-1.014 1.939.1.188.823.011 1.277-.491a13.389 13.389 0 0 0-.017 2.14L3.226 18.64c-.741-.44-1.201-1.261-1.201-2.142V7.503c0-.881.46-1.702 1.201-2.142l7.577-4.498c.363-.216.777-.33 1.197-.33.419 0 .833.114 1.197.33l7.577 4.498c.741.44 1.201 1.261 1.201 2.142v8.995c0 .881-.46 1.702-1.201 2.142l-7.168 4.427c-.894.523-1.553 1.109-1.553 2.187"></path></svg>